#!OML:ASF H:\Terrain\Walking\May29\JustinRory\rory.ASF
:FULLY-SPECIFIED
:DEGREES
354
root 11.4504 10.3423 11.8655 -22.38 -19.6756 -4.16053
lowerback 41.4834 -2.88678 -13.1665
upperback 14.7984 -9.3574 -1.78093
thorax -1.48285 -5.49426 7.90112
lowerneck 12.9843 -28.4313 -14.3138
upperneck -17.2198 -38.6021 33.5987
head 2.45052 -21.2537 9.54611
rclavicle 4.92986e-014 4.77083e-015
rhumerus -22.2074 44.3453 -96.457
rradius 44.3194
rwrist -29.2539
rhand 14.2873 19.4334
rfingers 7.12502
rthumb 39.1804 -6.03471
lclavicle 4.92986e-014 4.77083e-015
lhumerus -68.9125 -33.0308 110.489
lradius 66.6285
lwrist 63.8816
lhand -7.15631 31.147
lfingers 7.12502
lthumb 18.7205 60.2662
rfemur -69.6752 -4.26552 31.3493
rtibia 110.37
rfoot -12.8973 -11.3849
rtoes 1.82925
lfemur -61.598 17.2722 13.3207
ltibia 106.861
lfoot -11.2144 -16.2543
ltoes -6.45948
355
root 11.4424 10.2923 11.8698 -22.5673 -21.6193 -7.50765
lowerback 42.1037 -3.56157 -9.85933
upperback 15.1839 -8.96947 -1.18542
thorax -1.74366 -5.21763 6.84761
lowerneck 12.9677 -28.3645 -14.2751
upperneck -17.6817 -38.4075 33.568
head 2.26171 -21.176 9.62736
rclavicle -3.18055e-014 -2.22639e-014
rhumerus -22.2189 45.809 -96.7805
rradius 44.0655
rwrist -29.0716
rhand 16.9647 17.6973
rfingers 7.12502
rthumb 41.6977 -6.99321
lclavicle -3.18055e-014 -2.22639e-014
lhumerus -68.6748 -32.007 110.561
lradius 66.6313
lwrist 65.6473
lhand -6.62703 31.6018
lfingers 7.12502
lthumb 19.2295 60.6711
rfemur -67.5664 -2.95211 35.4842
rtibia 109.885
rfoot -12.4118 -12.2483
rtoes 2.31588
lfemur -60.1029 19.0033 18.2941
ltibia 106.869
lfoot -11.0458 -17.3369
ltoes -11.4675
356
root 11.4653 10.3378 11.8176 -23.5959 -18.4538 -1.84712
lowerback 41.5955 -3.15275 -14.7016
upperback 14.5333 -10.3343 -2.22166
thorax -1.42189 -5.99799 8.46187
lowerneck 12.9813 -28.243 -14.0225
upperneck -18.0806 -38.1175 33.4311
head 2.0029 -21.0563 9.7137
rclavicle -1.20066e-013 1.43125e-014
rhumerus -22.2087 47.0315 -97.2775
rradius 43.9747
rwrist -28.4981
rhand 17.0506 17.5084
rfingers 7.12502
rthumb 41.7782 -7.15553
lclavicle -1.20066e-013 1.43125e-014
lhumerus -68.3436 -30.8181 110.352
lradius 66.7314
lwrist 67.441
lhand -6.59349 32.3713
lfingers 7.12502
lthumb 19.2617 61.4374
rfemur -69.6496 -5.75201 28.4644
rtibia 110.779
rfoot -12.6531 -9.70045
rtoes 3.16469
lfemur -61.5551 15.9509 10.0206
ltibia 106.778
lfoot -12.233 -13.4855
ltoes -16.2093
357
root 11.4497 10.3203 11.7946 -23.6888 -19.0944 -2.35948
lowerback 41.3645 -3.34082 -14.0747
upperback 14.5838 -10.289 -2.11995
thorax -1.40625 -5.96583 8.25158
lowerneck 13.1563 -28.1137 -14.1905
upperneck -18.3587 -37.9331 33.6888
head 1.95386 -21.0025 9.86607
rclavicle 3.18055e-014 0
rhumerus -22.3706 47.8993 -97.75
rradius 43.9519
rwrist -27.8832
rhand 15.0906 18.3494
rfingers 7.12502
rthumb 39.9369 -6.89561
lclavicle 3.18055e-014 0
lhumerus -68.09 -29.8125 110.287
lradius 66.7923
lwrist 68.8371
lhand -6.98365 32.6474
lfingers 7.12502
lthumb 18.8865 61.7505
rfemur -69.4931 -5.02663 29.3794
rtibia 110.586
rfoot -12.2259 -9.70319
rtoes 4.43884
lfemur -61.2312 16.8288 11.0725
ltibia 106.734
lfoot -12.07 -13.5758
ltoes -18.1081
358
root 11.4476 10.3242 11.7684 -24.2038 -18.6427 -1.2438
lowerback 41.2928 -3.29037 -14.9699
upperback 14.4602 -10.5754 -2.19752
thorax -1.31138 -6.14041 8.6676
lowerneck 13.1712 -27.9393 -14.3665
upperneck -18.8005 -37.6493 34.1025
head 1.89902 -20.9114 10.0607
rclavicle -1.43125e-013 8.11041e-014
rhumerus -22.3066 49.4071 -97.8988
rradius 43.6053
rwrist -27.9642
rhand 12.8901 19.3456
rfingers 7.12502
rthumb 37.862 -6.49103
lclavicle -1.43125e-013 8.11041e-014
lhumerus -67.8277 -28.8543 110.379
lradius 66.8369
lwrist 70.2986
lhand -7.39174 32.5802
lfingers 7.12502
lthumb 18.494 61.7211
rfemur -69.5496 -5.43118 28.0943
rtibia 110.759
rfoot -12.5356 -9.05995
rtoes 5.81998
lfemur -61.0844 16.4303 9.61936
ltibia 106.618
lfoot -11.8193 -12.7536
ltoes -17.9949
